<?xml version="1.0" standalone="no"?>
<!DOCTYPE svg PUBLIC "-//W3C//DTD SVG 20010904//EN"
 "http://www.w3.org/TR/2001/REC-SVG-20010904/DTD/svg10.dtd">
<svg version="1.0" xmlns="http://www.w3.org/2000/svg"
 width="2000.000000pt" height="2000.000000pt" viewBox="0 0 2000.000000 2000.000000"
 preserveAspectRatio="xMidYMid meet">
<metadata>
Created by potrace 1.11, written by Peter Selinger 2001-2013
</metadata>
<g transform="translate(0.000000,2000.000000) scale(0.100000,-0.100000)"
fill="#000000" stroke="none">
<path d="M675 15253 c-246 -20 -375 -117 -432 -325 -17 -59 -18 -355 -21
-4868 -2 -3349 0 -4833 8 -4898 24 -216 110 -337 279 -394 l66 -23 1235 -3
c869 -2 1255 1 1302 8 170 29 275 118 332 283 l21 62 5 2487 5 2487 1243
-1504 1242 -1504 0 -938 c1 -1013 2 -1034 54 -1149 54 -117 132 -179 272 -214
78 -20 103 -20 1324 -18 l1245 3 67 23 c165 56 248 163 278 359 7 47 10 1579
8 4913 l-3 4845 -21 66 c-50 161 -138 242 -311 287 -63 16 -162 17 -1288 17
-1356 0 -1285 3 -1417 -67 -93 -50 -146 -122 -185 -253 -17 -56 -18 -163 -23
-1680 l-5 -1620 -1440 1648 c-792 907 -1465 1671 -1495 1699 -184 167 -365
245 -624 268 -99 9 -1619 12 -1721 3z"/>
<path d="M14320 15250 c-1308 -51 -2224 -417 -2733 -1092 -317 -420 -488 -950
-527 -1628 -13 -236 -13 -4835 0 -5070 57 -990 409 -1694 1070 -2135 394 -263
896 -436 1520 -524 404 -58 238 -55 3094 -58 2608 -4 2630 -3 2709 17 136 34
214 94 267 204 58 123 55 -12 55 2566 0 2239 -1 2379 -18 2444 -45 177 -136
268 -314 314 -63 16 -163 17 -1328 17 -1165 0 -1265 -1 -1328 -17 -209 -54
-303 -175 -327 -423 -5 -58 -10 -578 -10 -1233 l0 -1133 -777 3 c-756 4 -780
5 -853 25 -103 29 -156 53 -218 101 -96 72 -159 173 -198 317 -18 67 -19 141
-19 2005 l0 1935 29 88 c63 193 197 326 395 392 188 62 62 58 1936 65 1690 5
1711 6 1776 26 165 51 251 145 290 319 11 49 14 250 14 1075 0 1127 3 1071
-67 1202 -50 93 -128 149 -260 185 -58 16 -209 17 -2023 19 -1078 0 -2048 -2
-2155 -6z"/>
</g>
</svg>
